<svg width="160" height="34" viewBox="0 0 160 34" fill="none" xmlns="http://www.w3.org/2000/svg">
<path d="M12.7142 7.05658V4.18478C12.7142 4.08068 12.7555 3.98085 12.8291 3.90725C12.9027 3.83364 13.0026 3.79229 13.1067 3.79229H21.5093C21.5609 3.79192 21.6121 3.80182 21.6599 3.82142C21.7077 3.84101 21.7511 3.86991 21.7876 3.90643C21.8241 3.94295 21.853 3.98636 21.8726 4.03415C21.8922 4.08193 21.9021 4.13313 21.9017 4.18478V31.4185C21.9017 31.4699 21.8916 31.5208 21.8718 31.5683C21.8521 31.6158 21.8231 31.6589 21.7866 31.6951C21.7501 31.7313 21.7068 31.76 21.6592 31.7794C21.6116 31.7988 21.5607 31.8086 21.5093 31.8083H18.6457C18.5935 31.8097 18.5415 31.8008 18.4928 31.7819C18.4441 31.763 18.3996 31.7345 18.362 31.6982C18.3244 31.6619 18.2945 31.6185 18.2739 31.5705C18.2533 31.5224 18.2425 31.4708 18.2422 31.4185V16.5233C18.2422 16.4719 18.232 16.421 18.2123 16.3735C18.1925 16.3261 18.1636 16.283 18.1271 16.2467C18.0906 16.2105 18.0473 16.1819 17.9997 16.1624C17.9521 16.143 17.9011 16.1332 17.8497 16.1336H4.47745C4.37571 16.1336 4.27791 16.0942 4.20469 16.0235C4.13147 15.9529 4.08854 15.8566 4.08496 15.7549V4.14608C4.08496 4.09467 4.09513 4.04376 4.11489 3.9963C4.13465 3.94884 4.1636 3.90575 4.20008 3.86952C4.23657 3.8333 4.27986 3.80465 4.32746 3.78523C4.37506 3.7658 4.42604 3.75599 4.47745 3.75636H7.34925C7.45239 3.75708 7.5511 3.79837 7.62403 3.87131C7.69696 3.94424 7.73825 4.04294 7.73898 4.14608V12.0843C7.73898 12.1884 7.78033 12.2882 7.85393 12.3618C7.92754 12.4354 8.02737 12.4768 8.13146 12.4768H17.8608C17.9629 12.4739 18.0599 12.4313 18.1312 12.358C18.2024 12.2847 18.2422 12.1865 18.2422 12.0843V7.84156C18.2394 7.74154 18.1982 7.64644 18.1272 7.57595C18.0562 7.50546 17.9608 7.46498 17.8608 7.46289H13.115C13.0617 7.46366 13.0087 7.45363 12.9594 7.43341C12.9101 7.41319 12.8653 7.3832 12.8279 7.34524C12.7904 7.30728 12.7611 7.26214 12.7415 7.21253C12.722 7.16293 12.7127 7.10988 12.7142 7.05658ZM4.08496 31.4185V18.9473C4.08496 18.8432 4.12631 18.7434 4.19992 18.6698C4.27352 18.5962 4.37336 18.5548 4.47745 18.5548H15.5335C15.6373 18.5556 15.7368 18.5972 15.8102 18.6706C15.8837 18.7441 15.9252 18.8435 15.926 18.9473V21.8191C15.926 21.8707 15.9158 21.9217 15.8961 21.9693C15.8764 22.017 15.8474 22.0602 15.811 22.0967C15.7746 22.1331 15.7313 22.162 15.6837 22.1817C15.6361 22.2015 15.585 22.2116 15.5335 22.2116H8.13423C8.08235 22.2109 8.03085 22.2205 7.98275 22.2399C7.93464 22.2594 7.8909 22.2882 7.85408 22.3248C7.81727 22.3613 7.78812 22.4049 7.76836 22.4528C7.74859 22.5008 7.7386 22.5522 7.73898 22.6041V31.4185C7.73825 31.5221 7.69657 31.6213 7.62305 31.6943C7.54952 31.7673 7.4501 31.8083 7.34649 31.8083H4.47745C4.42604 31.8086 4.37506 31.7988 4.32746 31.7794C4.27986 31.76 4.23657 31.7313 4.20008 31.6951C4.1636 31.6589 4.13465 31.6158 4.11489 31.5683C4.09513 31.5208 4.08496 31.4699 4.08496 31.4185Z" fill="white"/>
<path d="M27.6177 24.8179H43.3034C43.3826 24.8178 43.4599 24.8415 43.5255 24.8858C43.591 24.9302 43.6417 24.9932 43.6711 25.0667L46.0647 31.2774C46.0876 31.3366 46.0958 31.4005 46.0884 31.4635C46.0811 31.5266 46.0585 31.5869 46.0225 31.6392C45.9865 31.6915 45.9383 31.7342 45.8821 31.7636C45.8259 31.7931 45.7633 31.8083 45.6998 31.8081H42.6097C42.5305 31.8082 42.4532 31.7845 42.3877 31.7402C42.3221 31.6958 42.2714 31.6328 42.2421 31.5593L41.1558 28.7235C41.1271 28.6499 41.077 28.5866 41.0119 28.5418C40.9469 28.4969 40.8699 28.4726 40.791 28.4719H30.1274C30.0484 28.4726 29.9715 28.4969 29.9064 28.5418C29.8414 28.5866 29.7913 28.6499 29.7626 28.7235L28.6763 31.5593C28.6475 31.6326 28.5973 31.6955 28.5322 31.7399C28.4671 31.7843 28.3902 31.808 28.3115 31.8081H25.2213C25.1578 31.8083 25.0953 31.7931 25.039 31.7636C24.9828 31.7342 24.9346 31.6915 24.8987 31.6392C24.8627 31.5869 24.8401 31.5266 24.8327 31.4635C24.8253 31.4005 24.8335 31.3366 24.8565 31.2774L27.2501 25.0667C27.2797 24.9934 27.3305 24.9306 27.396 24.8863C27.4615 24.842 27.5387 24.8182 27.6177 24.8179ZM33.4719 19.1489L32.1534 22.5542C32.125 22.628 32.075 22.6915 32.0099 22.7364C31.9448 22.7813 31.8677 22.8054 31.7886 22.8057H28.6957C28.6321 22.8055 28.5695 22.7898 28.5133 22.76C28.4572 22.7303 28.409 22.6873 28.3732 22.6348C28.3373 22.5823 28.3147 22.5219 28.3073 22.4588C28.2999 22.3956 28.308 22.3316 28.3308 22.2723L35.1165 4.65173C35.145 4.57775 35.1952 4.51414 35.2606 4.46927C35.326 4.4244 35.4034 4.40039 35.4827 4.40039C35.562 4.40039 35.6394 4.4244 35.7048 4.46927C35.7702 4.51414 35.8204 4.57775 35.8489 4.65173L42.5931 22.2723C42.6154 22.3315 42.623 22.3952 42.6153 22.4579C42.6077 22.5207 42.585 22.5807 42.5492 22.6328C42.5133 22.6849 42.4654 22.7276 42.4096 22.7573C42.3537 22.7869 42.2915 22.8026 42.2282 22.803H34.4089C34.3453 22.8027 34.2827 22.787 34.2265 22.7573C34.1704 22.7275 34.1222 22.6845 34.0864 22.632C34.0505 22.5796 34.0279 22.5191 34.0205 22.456C34.0131 22.3928 34.0212 22.3288 34.044 22.2695L35.1496 19.3977C35.178 19.3239 35.2281 19.2604 35.2932 19.2155C35.3583 19.1706 35.4354 19.1465 35.5145 19.1462H36.9186C36.9818 19.1458 37.044 19.1301 37.0999 19.1005C37.1558 19.0709 37.2037 19.0282 37.2395 18.9761C37.2753 18.9239 37.298 18.8639 37.3057 18.8012C37.3133 18.7384 37.3057 18.6747 37.2834 18.6155L35.8489 14.8482C35.8204 14.7742 35.7702 14.7106 35.7048 14.6657C35.6394 14.6208 35.562 14.5968 35.4827 14.5968C35.4034 14.5968 35.326 14.6208 35.2606 14.6657C35.1952 14.7106 35.145 14.7742 35.1165 14.8482L33.4719 19.1489Z" fill="white"/>
<path d="M66.0596 20.5669C65.3691 21.223 64.5993 21.7903 63.7682 22.2557C63.721 22.2811 63.6796 22.316 63.6465 22.3582C63.6134 22.4003 63.5893 22.4489 63.5758 22.5008C63.5623 22.5526 63.5597 22.6068 63.5681 22.6597C63.5765 22.7127 63.5957 22.7633 63.6245 22.8085L68.7158 31.2277C68.7516 31.2868 68.771 31.3545 68.7721 31.4237C68.7731 31.4928 68.7557 31.561 68.7216 31.6213C68.6876 31.6815 68.6381 31.7315 68.5783 31.7663C68.5185 31.8011 68.4505 31.8193 68.3814 31.8192H65.001C64.9336 31.8202 64.8672 31.8033 64.8084 31.7703C64.7497 31.7373 64.7007 31.6893 64.6665 31.6312L59.7024 23.4C59.5961 23.4015 59.49 23.4089 59.3845 23.4221C59.293 23.4355 59.2006 23.4428 59.1081 23.4442H53.3452C53.2413 23.4449 53.1419 23.4865 53.0684 23.56C52.995 23.6334 52.9534 23.7328 52.9527 23.8367V31.4184C52.9527 31.5217 52.9116 31.6209 52.8385 31.694C52.7654 31.767 52.6663 31.8081 52.563 31.8081H49.6884C49.5848 31.8081 49.4854 31.7671 49.4118 31.6941C49.3383 31.6211 49.2966 31.522 49.2959 31.4184V10.4506C49.2961 10.3652 49.3241 10.2822 49.3758 10.2142C49.4274 10.1461 49.4999 10.0968 49.5821 10.0737C49.6643 10.0506 49.7518 10.0549 49.8314 10.086C49.9109 10.1171 49.9781 10.1733 50.0228 10.2461L52.8974 14.9891C52.9336 15.0502 52.9527 15.1199 52.9527 15.1909V19.3977C52.9534 19.5016 52.995 19.601 53.0684 19.6744C53.1419 19.7479 53.2413 19.7895 53.3452 19.7902H59.1247C59.9324 19.797 60.733 19.6387 61.4773 19.325C62.2216 19.0113 62.894 18.5488 63.4531 17.966C64.0386 17.4056 64.503 16.7312 64.8177 15.9843C65.1324 15.2375 65.2907 14.4341 65.2829 13.6237C65.2829 12.8139 65.1233 12.0121 64.8131 11.2641C64.503 10.5161 64.0484 9.83652 63.4755 9.26431C62.9025 8.69211 62.2223 8.23846 61.4739 7.92934C60.7255 7.62021 59.9234 7.46165 59.1136 7.46274H56.2446C56.175 7.46226 56.1066 7.48042 56.0464 7.51534C55.9862 7.55026 55.9364 7.60066 55.9023 7.66131C55.8681 7.72197 55.8509 7.79065 55.8522 7.86024C55.8536 7.92982 55.8736 7.99776 55.9102 8.057L60.8854 16.2357C60.9217 16.2952 60.9415 16.3632 60.9428 16.4329C60.9441 16.5025 60.9269 16.5713 60.8928 16.6321C60.8588 16.6928 60.8092 16.7435 60.7491 16.7787C60.689 16.814 60.6206 16.8326 60.5509 16.8327H57.1844C57.1172 16.8326 57.0512 16.8153 56.9926 16.7824C56.9341 16.7495 56.8849 16.7021 56.8499 16.6448L49.3871 4.40299C49.3508 4.34353 49.331 4.27547 49.3297 4.20582C49.3284 4.13616 49.3456 4.06741 49.3797 4.00663C49.4137 3.94585 49.4633 3.89523 49.5234 3.85996C49.5835 3.82469 49.6519 3.80606 49.7216 3.80596H59.1192C60.4104 3.78477 61.6923 4.02813 62.8859 4.52108C64.0795 5.01402 65.1596 5.7461 66.0596 6.67224C66.9885 7.57199 67.7233 8.65248 68.2186 9.84708C68.714 11.0417 68.9594 12.3251 68.9397 13.6182C68.9479 14.91 68.6973 16.1905 68.2027 17.3839C67.708 18.5774 66.9793 19.6596 66.0596 20.5669Z" fill="white"/>
<path d="M84.39 20.0336L82.6266 22.4438C82.5917 22.492 82.5462 22.5316 82.4936 22.5595C82.441 22.5874 82.3827 22.6029 82.3231 22.6048C82.2636 22.6066 82.2045 22.5949 82.1502 22.5703C82.096 22.5458 82.0481 22.5091 82.0102 22.4632L77.082 16.4736C77.0305 16.4118 76.9612 16.3674 76.8837 16.3464C76.8061 16.3253 76.7239 16.3285 76.6482 16.3556C76.5725 16.3828 76.507 16.4325 76.4605 16.4981C76.414 16.5637 76.3888 16.6419 76.3882 16.7223V31.4185C76.3875 31.5222 76.3458 31.6213 76.2723 31.6943C76.1988 31.7673 76.0994 31.8083 75.9957 31.8083H73.1239C73.0725 31.8086 73.0215 31.7988 72.9739 31.7794C72.9263 31.76 72.883 31.7313 72.8466 31.6951C72.8101 31.6589 72.7811 31.6158 72.7614 31.5683C72.7416 31.5209 72.7314 31.4699 72.7314 31.4185V6.48444C72.732 6.40405 72.7572 6.32577 72.8038 6.2602C72.8503 6.19462 72.9158 6.1449 72.9914 6.11777C73.0671 6.09063 73.1493 6.08739 73.2269 6.10848C73.3045 6.12957 73.3737 6.17397 73.4252 6.23568L84.3762 19.5554C84.4313 19.6223 84.4626 19.7055 84.4651 19.7921C84.4676 19.8787 84.4412 19.9637 84.39 20.0336ZM83.4724 29.727L81.5652 27.4273C81.5121 27.3589 81.4832 27.2748 81.4832 27.1882C81.4832 27.1016 81.5121 27.0175 81.5652 26.9491L96.7949 5.82661C96.8429 5.75889 96.9113 5.70829 96.9901 5.68216C97.0689 5.65603 97.154 5.65575 97.233 5.68135C97.3119 5.70696 97.3807 5.75711 97.4291 5.8245C97.4776 5.89189 97.5033 5.97301 97.5025 6.05602V31.4185C97.5025 31.5219 97.4614 31.621 97.3883 31.6941C97.3152 31.7672 97.2161 31.8083 97.1127 31.8083H94.252C94.1486 31.8083 94.0495 31.7672 93.9764 31.6941C93.9033 31.621 93.8623 31.5219 93.8623 31.4185V17.347C93.8615 17.2644 93.8347 17.1841 93.7857 17.1176C93.7366 17.0511 93.6678 17.0018 93.5891 16.9766C93.5104 16.9515 93.4257 16.9519 93.3472 16.9777C93.2687 17.0035 93.2004 17.0534 93.1519 17.1203L84.1026 29.7076C84.068 29.7584 84.0218 29.8004 83.9679 29.8299C83.914 29.8595 83.8539 29.8759 83.7924 29.8778C83.7309 29.8797 83.6699 29.867 83.6143 29.8408C83.5587 29.8146 83.51 29.7756 83.4724 29.727Z" fill="white"/>
<path d="M112.451 7.05653V4.18473C112.45 4.13331 112.46 4.08234 112.479 4.03474C112.499 3.98713 112.527 3.94384 112.564 3.90736C112.6 3.87088 112.643 3.84192 112.69 3.82216C112.738 3.80241 112.789 3.79224 112.84 3.79224H120.422C120.526 3.79224 120.626 3.83359 120.699 3.90719C120.773 3.9808 120.814 4.08063 120.814 4.18473V22.1121C120.822 23.4035 120.572 24.6834 120.077 25.8763C119.582 27.0693 118.854 28.1511 117.934 29.058C117.034 29.9873 115.953 30.7223 114.758 31.2176C113.563 31.713 112.279 31.9582 110.986 31.9381C108.222 31.9381 105.906 30.9781 104.04 29.058C103.111 28.1584 102.376 27.0779 101.881 25.8832C101.386 24.6885 101.142 23.405 101.162 22.1121V4.57445C101.163 4.493 101.189 4.4138 101.237 4.34782C101.285 4.28185 101.352 4.23237 101.429 4.20624C101.506 4.18012 101.589 4.17865 101.667 4.20203C101.746 4.22542 101.814 4.2725 101.864 4.33675L112.495 18.1291C112.547 18.1982 112.576 18.2828 112.575 18.3696V23.0325C112.576 23.1143 112.551 23.1943 112.504 23.2611C112.456 23.3279 112.389 23.3782 112.312 23.4048C112.235 23.4314 112.151 23.4329 112.073 23.4093C111.994 23.3856 111.925 23.3379 111.876 23.2729L105.518 15.0694C105.468 15.005 105.399 14.9578 105.321 14.9345C105.243 14.9112 105.159 14.9129 105.082 14.9393C105.004 14.9658 104.937 15.0157 104.89 15.0822C104.842 15.1486 104.817 15.2282 104.816 15.3098V22.1121C104.851 23.726 105.516 25.2623 106.669 26.3917C107.823 27.521 109.373 28.1535 110.987 28.1535C112.601 28.1535 114.151 27.521 115.305 26.3917C116.458 25.2623 117.123 23.726 117.158 22.1121V7.84151C117.154 7.73982 117.111 7.64351 117.038 7.57287C116.965 7.50222 116.867 7.46277 116.765 7.46284H112.84C112.788 7.4625 112.736 7.45164 112.688 7.43089C112.639 7.41014 112.596 7.37993 112.56 7.34205C112.523 7.30416 112.495 7.25937 112.476 7.21033C112.457 7.16129 112.449 7.10899 112.451 7.05653Z" fill="white"/>
<path d="M138.363 15.1301V18.8256C138.364 18.8999 138.343 18.9729 138.304 19.036C138.264 19.099 138.208 19.1495 138.141 19.1815C138.074 19.2135 137.999 19.2256 137.925 19.2164C137.851 19.2072 137.782 19.1771 137.724 19.1296L128.764 11.8105C128.706 11.7631 128.637 11.733 128.563 11.7238C128.489 11.7146 128.414 11.7267 128.347 11.7586C128.28 11.7906 128.223 11.8411 128.184 11.9042C128.145 11.9672 128.124 12.0402 128.125 12.1146V31.4184C128.125 31.5217 128.084 31.6209 128.011 31.694C127.938 31.767 127.839 31.8081 127.735 31.8081H124.861C124.757 31.8081 124.658 31.7671 124.584 31.6941C124.511 31.6211 124.469 31.522 124.468 31.4184V4.39194C124.468 4.31758 124.489 4.24472 124.529 4.18185C124.569 4.11899 124.625 4.0687 124.693 4.03684C124.76 4.00498 124.835 3.99287 124.908 4.00191C124.982 4.01094 125.052 4.04077 125.11 4.0879L138.219 14.8261C138.264 14.8628 138.301 14.9092 138.326 14.9618C138.35 15.0144 138.363 15.0719 138.363 15.1301ZM140.4 3.79768H143.275C143.326 3.79767 143.377 3.80785 143.424 3.8276C143.472 3.84736 143.515 3.87632 143.551 3.9128C143.587 3.94928 143.616 3.99257 143.635 4.04017C143.655 4.08778 143.665 4.13875 143.664 4.19016V31.1724C143.664 31.2463 143.643 31.3185 143.603 31.3809C143.564 31.4433 143.507 31.4932 143.441 31.525C143.374 31.5567 143.3 31.569 143.226 31.5604C143.153 31.5518 143.083 31.5227 143.026 31.4764L129.908 20.7742C129.862 20.7376 129.826 20.6913 129.8 20.6387C129.775 20.5861 129.762 20.5285 129.761 20.4702V16.7332C129.761 16.6589 129.782 16.586 129.822 16.5231C129.862 16.4603 129.918 16.41 129.986 16.3781C130.053 16.3463 130.128 16.3342 130.202 16.3432C130.275 16.3522 130.345 16.3821 130.403 16.4292L139.361 23.787C139.417 23.8364 139.486 23.8685 139.561 23.8795C139.635 23.8905 139.71 23.8799 139.779 23.849C139.847 23.8181 139.905 23.7682 139.945 23.7052C139.986 23.6422 140.008 23.5689 140.008 23.494V4.18464C140.007 4.13215 140.018 4.08019 140.038 4.03184C140.059 3.98349 140.089 3.93972 140.126 3.90312C140.164 3.86653 140.209 3.83785 140.257 3.81879C140.306 3.79973 140.359 3.79067 140.411 3.79215L140.4 3.79768Z" fill="white"/>
<path d="M155.915 28.5439V31.4185C155.914 31.5221 155.872 31.6212 155.799 31.6942C155.725 31.7672 155.626 31.8082 155.522 31.8082H147.714C147.61 31.8082 147.511 31.7672 147.437 31.6942C147.364 31.6212 147.322 31.5221 147.321 31.4185V28.5439C147.322 28.4403 147.364 28.3412 147.437 28.2682C147.511 28.1952 147.61 28.1542 147.714 28.1542H149.397C149.501 28.1542 149.601 28.1128 149.675 28.0392C149.748 27.9656 149.79 27.8658 149.79 27.7617V14.3314C149.789 14.2797 149.799 14.2285 149.819 14.1808C149.838 14.133 149.867 14.0896 149.904 14.053C149.94 14.0165 149.984 13.9876 150.032 13.968C150.079 13.9484 150.131 13.9385 150.182 13.9389H153.054C153.158 13.9389 153.258 13.9803 153.332 14.0539C153.405 14.1275 153.446 14.2273 153.446 14.3314V27.7617C153.446 27.8658 153.488 27.9656 153.561 28.0392C153.635 28.1128 153.735 28.1542 153.839 28.1542H155.522C155.626 28.1542 155.725 28.1952 155.799 28.2682C155.872 28.3412 155.914 28.4403 155.915 28.5439ZM149.79 11.6282V7.8415C149.787 7.73959 149.744 7.64287 149.671 7.57208C149.597 7.50129 149.499 7.46207 149.397 7.46284H147.714C147.661 7.46249 147.609 7.45164 147.561 7.43092C147.513 7.41021 147.469 7.38004 147.432 7.3422C147.396 7.30436 147.367 7.2596 147.348 7.21054C147.329 7.16148 147.32 7.10912 147.321 7.05653V4.18473C147.321 4.08063 147.363 3.9808 147.436 3.90719C147.51 3.83359 147.61 3.79224 147.714 3.79224H155.522C155.626 3.79224 155.726 3.83359 155.8 3.90719C155.873 3.9808 155.915 4.08063 155.915 4.18473V7.05653C155.916 7.10912 155.907 7.16148 155.888 7.21054C155.869 7.2596 155.84 7.30436 155.804 7.3422C155.767 7.38004 155.724 7.41021 155.675 7.43092C155.627 7.45164 155.575 7.46249 155.522 7.46284H153.839C153.787 7.46247 153.736 7.47237 153.688 7.49196C153.641 7.51156 153.597 7.54045 153.561 7.57697C153.524 7.61349 153.495 7.65691 153.476 7.70469C153.456 7.75248 153.446 7.80368 153.446 7.85532V11.642C153.446 11.7459 153.404 11.8453 153.331 11.9187C153.257 11.9922 153.158 12.0338 153.054 12.0345H150.182C150.129 12.0345 150.077 12.0239 150.029 12.0034C149.98 11.9828 149.936 11.9526 149.9 11.9147C149.863 11.8768 149.834 11.8319 149.816 11.7826C149.797 11.7334 149.788 11.6809 149.79 11.6282Z" fill="white"/>
</svg>
